<?xml version="1.0" encoding="UTF-8" standalone="no"?><!DOCTYPE svg PUBLIC "-//W3C//DTD SVG 1.1//EN" "http://www.w3.org/Graphics/SVG/1.1/DTD/svg11.dtd"><svg width="100%" height="100%" viewBox="0 0 1024 1024" version="1.1" xmlns="http://www.w3.org/2000/svg" xmlns:xlink="http://www.w3.org/1999/xlink" xml:space="preserve" xmlns:serif="http://www.serif.com/" style="fill-rule:evenodd;clip-rule:evenodd;stroke-linecap:round;stroke-miterlimit:1.5;"><path d="M1024,153.618c0,-84.784 -68.834,-153.618 -153.618,-153.618l-716.764,0c-84.784,0 -153.618,68.834 -153.618,153.618l0,716.764c0,84.784 68.834,153.618 153.618,153.618l716.764,0c84.784,0 153.618,-68.834 153.618,-153.618l0,-716.764Z" style="fill:url(#_Linear1);"/><clipPath id="_clip2"><path d="M1024,153.618c0,-84.784 -68.834,-153.618 -153.618,-153.618l-716.764,0c-84.784,0 -153.618,68.834 -153.618,153.618l0,716.764c0,84.784 68.834,153.618 153.618,153.618l716.764,0c84.784,0 153.618,-68.834 153.618,-153.618l0,-716.764Z"/></clipPath><g clip-path="url(#_clip2)"><path d="M-157.332,916.734l755.445,-916.734l1.625,0.412l227.27,1165.95l572.497,165.899l-336.526,-658.395l-837.487,-203.569" style="fill:none;stroke:#fff;stroke-width:41.67px;"/></g><defs><linearGradient id="_Linear1" x1="0" y1="0" x2="1" y2="0" gradientUnits="userSpaceOnUse" gradientTransform="matrix(1097.93,747.178,-747.178,1097.93,-44.865,126.644)"><stop offset="0" style="stop-color:#fff200;stop-opacity:1"/><stop offset="1" style="stop-color:#ff6900;stop-opacity:1"/></linearGradient></defs></svg>